<?xml version="1.0" encoding="utf-8"?>
<!-- Generator: Adobe Illustrator 21.0.2, SVG Export Plug-In . SVG Version: 6.00 Build 0)  -->
<svg version="1.1" id="Layer_1" xmlns="http://www.w3.org/2000/svg" xmlns:xlink="http://www.w3.org/1999/xlink" x="0px" y="0px"
	 viewBox="0 0 400 200" style="enable-background:new 0 0 400 200;" xml:space="preserve">
<style type="text/css">
	.st0{fill:#191919;}
</style>
<g>
	<g>
		<g>
			<path class="st0" d="M298.4,102.8c-5.5,7.8-13.7,8.3-22.1,8.3h-9.7v19.1H252V71.9h28.9c5.5,0,10.7,0.7,15.2,4.5
				c0.6,0.5,1.7,1.4,2.6,2.9c1.2,1.9,3.2,6.1,3.2,11.9C301.8,93.1,301.6,98.1,298.4,102.8z M285.8,85.8c-2.3-3.2-6.5-3.2-10-3.2
				h-9.3v17.7h8.8c2.6,0,3.6,0,5-0.2c5.1-0.8,7.2-4,7.1-8.9C287.4,88.3,286.6,86.9,285.8,85.8z"/>
			<path class="st0" d="M333.6,83.3v46.8h-14.7V83.3h-15.2V71.9h45v11.5L333.6,83.3L333.6,83.3z"/>
		</g>
		<path class="st0" d="M363.1,33.7c-18.4-18.3-40.7-27.4-66.8-27.4c-26,0-47.9,9.1-65.7,27.2c-9,9-15.9,19.2-20.6,30.7
			c-4.7,11.4-7.1,23.3-7.1,35.7c0,12.5,2.3,24.3,7,35.6s11.5,21.4,20.5,30.3c9,9,19.1,15.8,30.4,20.6c11.3,4.7,23.1,7.1,35.5,7.1
			s24.3-2.4,35.9-7.2s21.9-11.7,31.1-20.7c8.8-8.6,15.5-18.5,20-29.7s6.8-23.2,6.8-36c0-12.7-2.3-24.7-6.9-36
			C378.6,52.6,371.9,42.5,363.1,33.7z M351.2,153.6c-7.6,7.4-16.1,13-25.5,16.9s-19.1,5.8-29.2,5.8s-19.8-1.9-29.1-5.8
			c-9.2-3.8-17.5-9.4-24.9-16.7s-13-15.6-17-24.9c-4-9.3-5.9-19-5.9-29c0-10.1,2-19.9,5.9-29.2c4-9.3,9.6-17.7,17-25.1
			c14.6-14.9,32.6-22.4,54-22.4c21.2,0,39.3,7.5,54.3,22.6c7.2,7.2,12.8,15.5,16.5,24.7c3.8,9.2,5.7,19.1,5.7,29.4
			C373.1,121.4,365.8,139.3,351.2,153.6z"/>
	</g>
	<g>
		<path class="st0" d="M100,5.7c-25.6,0-48.1,9.5-65.5,27.1C16.6,51,6.9,74.5,6.9,99.1c0,24.8,9.5,47.8,27.4,65.7
			s41.2,27.6,65.7,27.6c24.6,0,48.3-9.7,66.8-27.9c17.4-17.1,26.6-39.9,26.6-65.5c0-25.3-9.2-48.3-26.9-66
			C148.6,15.2,125.6,5.7,100,5.7z M100.2,22.6c21,0,39.6,7.9,54.2,22.5c14.3,14.3,22,33.3,22,54c0,21-7.4,39.4-21.7,53.5
			c-15.1,14.8-34.5,22.8-54.5,22.8c-20.2,0-39.1-7.9-53.7-22.5C31.9,138.2,23.8,119,23.8,99.1c0-20.2,8.2-39.4,22.8-54.2
			C60.8,30.3,79.3,22.6,100.2,22.6z"/>
		<path class="st0" d="M99,83.6C93.7,74,84.7,70.2,74.3,70.2C59.1,70.2,47,81,47,99.2c0,18.5,11.4,29,27.8,29
			c10.5,0,19.5-5.8,24.5-14.6l-11.6-5.9c-2.6,6.2-6.5,8.1-11.5,8.1c-8.6,0-12.5-7.1-12.5-16.5S67,82.8,76.2,82.8
			c2.5,0,7.4,1.3,10.3,7.5L99,83.6z"/>
		<path class="st0" d="M152.9,83.6c-5.3-9.6-14.3-13.4-24.7-13.4c-15.2,0-27.3,10.8-27.3,29c0,18.5,11.4,29,27.8,29
			c10.5,0,19.5-5.8,24.5-14.6l-11.6-5.9c-2.6,6.2-6.5,8.1-11.5,8.1c-8.6,0-12.5-7.1-12.5-16.5s3.3-16.5,12.5-16.5
			c2.5,0,7.4,1.3,10.3,7.5L152.9,83.6z"/>
	</g>
</g>
</svg>
